<svg xmlns="http://www.w3.org/2000/svg" xmlns:xlink="http://www.w3.org/1999/xlink" width="108" height="108" viewBox="0 0 108 108">
  <defs>
    <filter id="Rectangle_31" x="0" y="0" width="108" height="108" filterUnits="userSpaceOnUse">
      <feOffset dy="3" input="SourceAlpha"/>
      <feGaussianBlur stdDeviation="3" result="blur"/>
      <feFlood flood-opacity="0.2"/>
      <feComposite operator="in" in2="blur"/>
      <feComposite in="SourceGraphic"/>
    </filter>
    <filter id="Path_444" x="25.215" y="28.911" width="56.924" height="50.437" filterUnits="userSpaceOnUse">
      <feOffset dy="3" input="SourceAlpha"/>
      <feGaussianBlur stdDeviation="3" result="blur-2"/>
      <feFlood flood-opacity="0.161"/>
      <feComposite operator="in" in2="blur-2"/>
      <feComposite in="SourceGraphic"/>
    </filter>
  </defs>
  <g id="Group_18582" data-name="Group 18582" transform="translate(-1105 -1081)">
    <g transform="matrix(1, 0, 0, 1, 1105, 1081)" filter="url(#Rectangle_31)">
      <rect id="Rectangle_31-2" data-name="Rectangle 31" width="90" height="90" rx="26" transform="translate(9 6)" fill="rgba(0,0,0,0.2)"/>
    </g>
    <g transform="matrix(1, 0, 0, 1, 1105, 1081)" filter="url(#Path_444)">
      <path id="Path_444-2" data-name="Path 444" d="M-110.986,793.717a7.78,7.78,0,0,0,1.079-4.018c0-3.717-2.462-6.742-5.489-6.742a5.222,5.222,0,0,0-4.372,2.681,6.829,6.829,0,0,0-5.37-2.872,6.829,6.829,0,0,0-5.37,2.872,5.223,5.223,0,0,0-4.372-2.681c-3.027,0-5.489,3.024-5.489,6.742a7.783,7.783,0,0,0,1.079,4.019,10.612,10.612,0,0,0-5.31,9.363,1.081,1.081,0,0,0,1.067,1.095h7.69a16.744,16.744,0,0,0-4.045,11.028h29.5a16.745,16.745,0,0,0-4.046-11.028h7.69a1.081,1.081,0,0,0,1.067-1.095A10.613,10.613,0,0,0-110.986,793.717Zm-26.258,1.464a1.087,1.087,0,0,0,.689-.8,1.116,1.116,0,0,0-.3-1.022,5.161,5.161,0,0,1-1.382-3.662c0-2.509,1.5-4.55,3.355-4.55a3.507,3.507,0,0,1,3.078,2.743,11.759,11.759,0,0,0-.874,4.5c0,.232.009.462.021.689-.081.1-.163.194-.251.281a1.115,1.115,0,0,0-.3,1.022,1.084,1.084,0,0,0,.69.8c.061.022.12.049.182.073a10.018,10.018,0,0,0,2.565,4.72,14.268,14.268,0,0,0-3.717,2.01H-142.4A8.144,8.144,0,0,1-137.244,795.182Zm20.454,6.8a14.262,14.262,0,0,0-3.717-2.01,10.019,10.019,0,0,0,2.565-4.72c.061-.024.121-.051.182-.074a1.084,1.084,0,0,0,.69-.8,1.114,1.114,0,0,0-.3-1.022c-.088-.088-.17-.184-.251-.281.012-.227.021-.457.021-.688a11.759,11.759,0,0,0-.874-4.5,3.507,3.507,0,0,1,3.078-2.743c1.85,0,3.355,2.041,3.355,4.55a5.164,5.164,0,0,1-1.383,3.662,1.118,1.118,0,0,0-.3,1.022,1.087,1.087,0,0,0,.689.8,8.144,8.144,0,0,1,5.157,6.8Z" transform="translate(178.82 -747.86)" fill="#fff"/>
    </g>
  </g>
</svg>
