<svg xmlns="http://www.w3.org/2000/svg" xmlns:xlink="http://www.w3.org/1999/xlink" width="108" height="108" viewBox="0 0 108 108">
  <defs>
    <linearGradient id="linear-gradient" x1="0.5" x2="0.5" y2="1" gradientUnits="objectBoundingBox">
      <stop offset="0" stop-color="#d52f89"/>
      <stop offset="1" stop-color="#be1568"/>
    </linearGradient>
    <filter id="Rectangle_32" x="0" y="0" width="108" height="108" filterUnits="userSpaceOnUse">
      <feOffset dy="3" input="SourceAlpha"/>
      <feGaussianBlur stdDeviation="3" result="blur"/>
      <feFlood flood-opacity="0.2"/>
      <feComposite operator="in" in2="blur"/>
      <feComposite in="SourceGraphic"/>
    </filter>
    <filter id="Path_16" x="24.106" y="24.314" width="58.006" height="58.006" filterUnits="userSpaceOnUse">
      <feOffset dy="3" input="SourceAlpha"/>
      <feGaussianBlur stdDeviation="3" result="blur-2"/>
      <feFlood flood-opacity="0.161"/>
      <feComposite operator="in" in2="blur-2"/>
      <feComposite in="SourceGraphic"/>
    </filter>
  </defs>
  <g id="Group_18583" data-name="Group 18583" transform="translate(-1237 -1081)">
    <g transform="matrix(1, 0, 0, 1, 1237, 1081)" filter="url(#Rectangle_32)">
      <rect id="Rectangle_32-2" data-name="Rectangle 32" width="90" height="90" rx="26" transform="translate(9 6)" fill="url(#linear-gradient)"/>
    </g>
    <g transform="matrix(1, 0, 0, 1, 1237, 1081)" filter="url(#Path_16)">
      <path id="Path_16-2" data-name="Path 16" d="M396.294,289.53l-11.741-6.386h0l-4.255,4.3a21.074,21.074,0,0,1-12.176-12.224l4.364-2.922h0l-7.737-13.082h0a28.39,28.39,0,0,0-7.316,3.37,3.339,3.339,0,0,0-.863,1.438,21.421,21.421,0,0,0-.11,6.214c1.19,14.945,13.954,27.88,28.8,28.917.633.045,1.274.067,1.9.067h0a25.7,25.7,0,0,0,4.851-.456,1.861,1.861,0,0,0,.865-.586c1.926-1.8,3.415-5.793,3.415-8.645Z" transform="translate(-323.18 -228.9)" fill="#fff"/>
    </g>
  </g>
</svg>
