<svg xmlns="http://www.w3.org/2000/svg" xmlns:xlink="http://www.w3.org/1999/xlink" width="108" height="108" viewBox="0 0 108 108">
  <defs>
    <linearGradient id="linear-gradient" x1="0.5" x2="0.5" y2="1" gradientUnits="objectBoundingBox">
      <stop offset="0" stop-color="#fff"/>
      <stop offset="1" stop-color="#ebebeb"/>
    </linearGradient>
    <filter id="Rectangle_23887" x="0" y="0" width="108" height="108" filterUnits="userSpaceOnUse">
      <feOffset dy="3" input="SourceAlpha"/>
      <feGaussianBlur stdDeviation="3" result="blur"/>
      <feFlood flood-opacity="0.2"/>
      <feComposite operator="in" in2="blur"/>
      <feComposite in="SourceGraphic"/>
    </filter>
    <filter id="Path_8" x="37.141" y="24" width="33.574" height="44.128" filterUnits="userSpaceOnUse">
      <feOffset dy="3" input="SourceAlpha"/>
      <feGaussianBlur stdDeviation="3" result="blur-2"/>
      <feFlood flood-opacity="0.302"/>
      <feComposite operator="in" in2="blur-2"/>
      <feComposite in="SourceGraphic"/>
    </filter>
    <filter id="Path_9" x="29.25" y="41.404" width="49.356" height="42.765" filterUnits="userSpaceOnUse">
      <feOffset dy="3" input="SourceAlpha"/>
      <feGaussianBlur stdDeviation="3" result="blur-3"/>
      <feFlood flood-opacity="0.302"/>
      <feComposite operator="in" in2="blur-3"/>
      <feComposite in="SourceGraphic"/>
    </filter>
  </defs>
  <g id="Group_18586" data-name="Group 18586" transform="translate(-575 -1081)">
    <g transform="matrix(1, 0, 0, 1, 575, 1081)" filter="url(#Rectangle_23887)">
      <rect id="Rectangle_23887-2" data-name="Rectangle 23887" width="90" height="90" rx="26" transform="translate(9 6)" fill="url(#linear-gradient)"/>
    </g>
    <g id="Group_1131" data-name="Group 1131" transform="translate(613.25 1111)">
      <g transform="matrix(1, 0, 0, 1, -38.25, -30)" filter="url(#Path_8)">
        <path id="Path_8-2" data-name="Path 8" d="M241.952,896.272a7.787,7.787,0,0,0,7.787-7.787V877.931a7.787,7.787,0,0,0-15.574,0v10.554A7.787,7.787,0,0,0,241.952,896.272Z" transform="translate(-188.02 -840.14)" fill="#191919"/>
      </g>
      <g transform="matrix(1, 0, 0, 1, -38.25, -30)" filter="url(#Path_9)">
        <path id="Path_9-2" data-name="Path 9" d="M253.765,898.727a1.865,1.865,0,1,0-3.729,0,11.949,11.949,0,1,1-23.9,0,1.865,1.865,0,1,0-3.73,0,15.749,15.749,0,0,0,13.813,15.643v5.373a1.865,1.865,0,1,0,3.729,0V914.37A15.749,15.749,0,0,0,253.765,898.727Z" transform="translate(-184.16 -849.45)" fill="#191919"/>
      </g>
    </g>
  </g>
</svg>
